<svg xmlns="http://www.w3.org/2000/svg" viewBox="0 0 577.31 132.01"><defs><style>.cls-1{fill:#c64e24;}.cls-2{fill:#28282a;}.cls-3{fill:#d8d8d8;}</style></defs><g id="Layer_2" data-name="Layer 2"><g id="Layer_31" data-name="Layer 31"><ellipse id="CAD_Centered_Ellipse" data-name="CAD Centered Ellipse" class="cls-1" cx="281.8" cy="66.01" rx="282.29" ry="55.93" transform="translate(-3.48 17.21) rotate(-3.48)"/><ellipse id="CAD_Centered_Ellipse-2" data-name="CAD Centered Ellipse" class="cls-2" cx="281.8" cy="66.01" rx="282.29" ry="55.93" transform="translate(-6.09 36.22) rotate(-7.28)"/><path class="cls-1" d="M63.25,53.58a2.81,2.81,0,0,0-1.94-4.85H49.9A18.71,18.71,0,0,1,37,43.55l-13.58-13a2.81,2.81,0,0,1,1.94-4.84H38.88a18.7,18.7,0,0,1,12.93,5.19l8.61,8.24a18.78,18.78,0,0,0,12.94,5.18H94a2.81,2.81,0,0,1,1.94,4.84L66.45,77.31a1.45,1.45,0,0,0,1,2.49,1.49,1.49,0,0,0,1-.4L92,56.87A18.7,18.7,0,0,1,105,51.68h13.55a2.81,2.81,0,0,1,1.94,4.84L93.7,82.09a18.78,18.78,0,0,1-12.94,5.18H35A2.81,2.81,0,0,1,33,82.43L63.24,53.58Z"/><path class="cls-1" d="M197.17,85,214,101a2.8,2.8,0,0,1-1.94,4.83H199.09A18.69,18.69,0,0,1,185.42,100l-6.34-6.76a18.72,18.72,0,0,0-13.67-5.92H111.15a2.81,2.81,0,0,1-1.94-4.84L136,56.87a18.7,18.7,0,0,1,12.93-5.19h45.77a2.81,2.81,0,0,1,1.94,4.84L185.5,67.14a18.69,18.69,0,0,1-12.93,5.18H155.38a18.74,18.74,0,0,0-12.94,5.19,1.33,1.33,0,0,0,.92,2.29h40.87A18.73,18.73,0,0,1,197.17,85ZM163.52,57.92a1.44,1.44,0,0,0-1,.4l-5.46,5.22a1.43,1.43,0,0,0,1,2.47,1.4,1.4,0,0,0,1-.4l5.47-5.22a1.43,1.43,0,0,0-1-2.47Z"/><path class="cls-1" d="M274.06,51.69A2.81,2.81,0,0,1,276,56.53L249.24,82.09a18.69,18.69,0,0,1-12.93,5.18H222.76a2.81,2.81,0,0,1-1.94-4.84l21.9-20.92a1.44,1.44,0,1,0-2-2.08L217,82.09a18.69,18.69,0,0,1-12.93,5.18H190.51a2.81,2.81,0,0,1-1.94-4.84l30.22-28.85a2.81,2.81,0,0,0-1.94-4.84H205.44a18.74,18.74,0,0,1-12.93-5.18l-13.59-13a2.81,2.81,0,0,1,1.94-4.84h13.56a18.74,18.74,0,0,1,12.93,5.19L216,39.16a18.72,18.72,0,0,0,12.93,5.19H249.5a2.81,2.81,0,0,1,1.94,4.84,1.47,1.47,0,0,0-.35,1.58,1.45,1.45,0,0,0,1.34.92h21.63Z"/><path class="cls-1" d="M296.46,50.5a2.83,2.83,0,0,0-2.62-1.77H282.45a18.73,18.73,0,0,1-12.94-5.18l-13.58-13a2.81,2.81,0,0,1,1.94-4.84h13.55a18.69,18.69,0,0,1,12.93,5.18L293,39.16a18.69,18.69,0,0,0,12.93,5.18h20.62a2.81,2.81,0,0,1,1.94,4.84,1.45,1.45,0,0,0,1,2.5h21.61A2.81,2.81,0,0,1,353,56.52L326.23,82.09a18.71,18.71,0,0,1-12.92,5.18h-45.8a2.81,2.81,0,0,1-1.94-4.84l30.22-28.85A2.81,2.81,0,0,0,296.46,50.5Zm21.24,8.94-18.81,18a1.45,1.45,0,0,0,1,2.49,1.46,1.46,0,0,0,1-.4l18.82-18a1.44,1.44,0,0,0-1-2.48A1.48,1.48,0,0,0,317.7,59.44Z"/><path class="cls-1" d="M389.24,94.61H368.63a2.81,2.81,0,0,1-1.94-4.84,1.47,1.47,0,0,0,.34-1.59,1.45,1.45,0,0,0-1.35-.91h-21.6a2.81,2.81,0,0,1-1.94-4.84l30.24-28.86a2.81,2.81,0,0,0-1.94-4.84H359a18.73,18.73,0,0,1-12.94-5.18l-13.58-13a2.81,2.81,0,0,1,1.94-4.84H348a18.73,18.73,0,0,1,12.94,5.18l8.61,8.24a18.69,18.69,0,0,0,12.93,5.18h20.61A2.81,2.81,0,0,1,405,49.18L375.43,77.43a1.44,1.44,0,0,0,2,2.07l23.71-22.64a18.75,18.75,0,0,1,12.93-5.18h13.55a2.81,2.81,0,0,1,1.94,4.84L399.34,85.37a2.81,2.81,0,0,0,1.94,4.84H412.7a18.74,18.74,0,0,1,12.93,5.19l13.58,13a2.81,2.81,0,0,1-1.94,4.84H423.72A18.69,18.69,0,0,1,410.79,108l-8.62-8.24A18.69,18.69,0,0,0,389.24,94.61Z"/><path class="cls-1" d="M503.56,85,520.37,101a2.81,2.81,0,0,1-1.94,4.83H505.48A18.69,18.69,0,0,1,491.81,100l-6.34-6.76a18.7,18.7,0,0,0-13.66-5.92H417.55a2.81,2.81,0,0,1-1.94-4.84l26.77-25.56a18.72,18.72,0,0,1,12.93-5.19h45.77A2.81,2.81,0,0,1,503,56.52L491.89,67.14A18.69,18.69,0,0,1,479,72.32H461.77a18.7,18.7,0,0,0-12.93,5.19,1.33,1.33,0,0,0,.91,2.29h40.87A18.71,18.71,0,0,1,503.56,85ZM469.91,57.92a1.46,1.46,0,0,0-1,.4l-5.46,5.22a1.42,1.42,0,0,0-.34,1.57,1.44,1.44,0,0,0,1.33.9,1.42,1.42,0,0,0,1-.4l5.46-5.22a1.43,1.43,0,0,0-1-2.47Z"/><path class="cls-1" d="M528.72,51.69H574.5a2.81,2.81,0,0,1,1.94,4.84l-13.58,13a18.72,18.72,0,0,1-12.94,5.19H541a2.78,2.78,0,0,0-2.6,1.76,2.81,2.81,0,0,0,.66,3.08l30.22,28.85a2.81,2.81,0,0,1-1.94,4.84H553.78A18.74,18.74,0,0,1,540.85,108L515.56,83.88a12.24,12.24,0,0,1-8.46,3.39H491A2.81,2.81,0,0,1,489,82.43l26.77-25.57A18.76,18.76,0,0,1,528.72,51.69Zm8.77,15.22,5.64-5.38a1.44,1.44,0,0,0-1-2.48,1.4,1.4,0,0,0-1,.4l-5.64,5.38a1.44,1.44,0,0,0,1,2.48A1.4,1.4,0,0,0,537.49,66.91Z"/><path class="cls-3" d="M53.87,53.58a2.81,2.81,0,0,0-1.94-4.85H40.52a18.75,18.75,0,0,1-12.93-5.18L14,30.57A2.81,2.81,0,0,1,16,25.73H29.5a18.7,18.7,0,0,1,12.93,5.19L51,39.16A18.78,18.78,0,0,0,64,44.34H84.59a2.81,2.81,0,0,1,1.94,4.84L57.07,77.31a1.45,1.45,0,0,0-.34,1.58,1.43,1.43,0,0,0,1.34.9,1.48,1.48,0,0,0,1-.39L82.66,56.86a18.74,18.74,0,0,1,12.93-5.18h13.55a2.81,2.81,0,0,1,1.94,4.84L84.32,82.08a18.74,18.74,0,0,1-12.94,5.19H25.59a2.81,2.81,0,0,1-1.94-4.84L53.86,53.58Z"/><path class="cls-3" d="M187.79,85l16.8,16a2.81,2.81,0,0,1-1.94,4.84H189.71A18.72,18.72,0,0,1,176,100l-6.34-6.76A18.72,18.72,0,0,0,156,87.27H101.77a2.81,2.81,0,0,1-1.94-4.84l26.78-25.57a18.74,18.74,0,0,1,12.93-5.18h45.77a2.81,2.81,0,0,1,1.94,4.84L176.12,67.14a18.69,18.69,0,0,1-12.93,5.18H146a18.78,18.78,0,0,0-12.94,5.18,1.35,1.35,0,0,0-.31,1.46,1.33,1.33,0,0,0,1.23.83h40.87A18.74,18.74,0,0,1,187.79,85ZM154.14,57.92a1.41,1.41,0,0,0-1,.4l-5.46,5.22a1.43,1.43,0,0,0,1,2.47,1.49,1.49,0,0,0,1-.4l5.47-5.22a1.43,1.43,0,0,0-1-2.47Z"/><path class="cls-3" d="M264.68,51.68a2.81,2.81,0,0,1,1.94,4.84L239.86,82.09a18.74,18.74,0,0,1-12.93,5.18H213.38a2.81,2.81,0,0,1-1.94-4.84l21.9-20.92a1.44,1.44,0,0,0-2-2.09L207.61,82.09a18.69,18.69,0,0,1-12.93,5.18H181.13a2.81,2.81,0,0,1-1.94-4.84l30.22-28.85a2.81,2.81,0,0,0-1.94-4.84H196.06a18.7,18.7,0,0,1-12.93-5.19l-13.59-13a2.81,2.81,0,0,1,1.94-4.84H185A18.75,18.75,0,0,1,198,30.92l8.61,8.24a18.72,18.72,0,0,0,12.93,5.19h20.61a2.81,2.81,0,0,1,1.94,4.84,1.45,1.45,0,0,0,1,2.5h21.63Z"/><path class="cls-3" d="M287.08,50.49a2.83,2.83,0,0,0-2.62-1.76H273.07a18.73,18.73,0,0,1-12.94-5.18l-13.58-13a2.81,2.81,0,0,1,1.94-4.84H262A18.74,18.74,0,0,1,275,30.92l8.61,8.24a18.74,18.74,0,0,0,12.93,5.18h20.62a2.81,2.81,0,0,1,1.94,4.84,1.45,1.45,0,0,0,1,2.5h21.61a2.81,2.81,0,0,1,1.94,4.84L316.85,82.08a18.68,18.68,0,0,1-12.92,5.19h-45.8a2.81,2.81,0,0,1-1.94-4.84l30.22-28.85A2.83,2.83,0,0,0,287.08,50.49Zm21.24,8.95-18.81,18a1.45,1.45,0,0,0,1,2.49,1.49,1.49,0,0,0,1-.4l18.82-18a1.44,1.44,0,0,0-1-2.48A1.48,1.48,0,0,0,308.32,59.44Z"/><path class="cls-3" d="M379.86,94.61H359.25a2.81,2.81,0,0,1-1.94-4.84,1.47,1.47,0,0,0,.34-1.59,1.45,1.45,0,0,0-1.35-.91H334.7a2.81,2.81,0,0,1-1.94-4.84L363,53.57a2.81,2.81,0,0,0-1.94-4.84H349.64a18.73,18.73,0,0,1-12.94-5.18l-13.58-13a2.81,2.81,0,0,1,1.94-4.84h13.55a18.74,18.74,0,0,1,12.94,5.19l8.61,8.24a18.74,18.74,0,0,0,12.93,5.18H393.7a2.81,2.81,0,0,1,1.94,4.84L366.05,77.42a1.44,1.44,0,0,0,1,2.48,1.42,1.42,0,0,0,1-.4l23.71-22.64a18.71,18.71,0,0,1,12.93-5.18h13.55a2.81,2.81,0,0,1,1.94,4.84L390,85.37a2.81,2.81,0,0,0,1.94,4.84h11.42a18.74,18.74,0,0,1,12.93,5.19l13.58,13a2.81,2.81,0,0,1-1.94,4.84H414.34A18.74,18.74,0,0,1,401.41,108l-8.62-8.24A18.69,18.69,0,0,0,379.86,94.61Z"/><path class="cls-3" d="M494.18,85,511,101a2.81,2.81,0,0,1-1.94,4.84H496.1A18.72,18.72,0,0,1,482.43,100l-6.34-6.76a18.7,18.7,0,0,0-13.66-5.92H408.17a2.81,2.81,0,0,1-1.94-4.84L433,56.86a18.75,18.75,0,0,1,12.93-5.18H491.7a2.81,2.81,0,0,1,1.94,4.84L482.51,67.14a18.69,18.69,0,0,1-12.93,5.18H452.39a18.74,18.74,0,0,0-12.93,5.18,1.33,1.33,0,0,0,.91,2.29h40.87A18.72,18.72,0,0,1,494.18,85ZM460.53,57.92a1.41,1.41,0,0,0-1,.4l-5.46,5.22a1.43,1.43,0,0,0,1,2.47,1.51,1.51,0,0,0,1-.4l5.46-5.22a1.43,1.43,0,0,0-1-2.47Z"/><path class="cls-3" d="M519.34,51.69h45.78a2.8,2.8,0,0,1,1.94,4.83l-13.58,13a18.71,18.71,0,0,1-12.93,5.18h-8.94a2.81,2.81,0,0,0-1.94,4.84l30.22,28.86a2.81,2.81,0,0,1-1.94,4.84H544.4A18.74,18.74,0,0,1,531.47,108L506.18,83.88a12.24,12.24,0,0,1-8.46,3.39H481.58a2.81,2.81,0,0,1-1.94-4.84l26.77-25.57A18.72,18.72,0,0,1,519.34,51.69Zm8.77,15.22,5.64-5.38a1.44,1.44,0,0,0-1-2.48,1.4,1.4,0,0,0-1,.4l-5.64,5.38a1.44,1.44,0,0,0,1,2.48A1.4,1.4,0,0,0,528.11,66.91Z"/></g></g></svg>